<?xml version="1.0" encoding="iso-8859-1"?>
<!-- Uploaded to: SVG Repo, www.svgrepo.com, Generator: SVG Repo Mixer Tools -->
<svg xmlns="http://www.w3.org/2000/svg" xmlns:xlink="http://www.w3.org/1999/xlink" version="1.1" id="Layer_1"  viewBox="0 0 272.222 272.222" xml:space="preserve" width="512" height="512">
<g>
	<g>
		<path style="fill:#1C7287;" d="M254.111,143.111h-95c-8.284,0-15-6.716-15-15s6.716-15,15-15h95c8.284,0,15,6.716,15,15    S262.395,143.111,254.111,143.111z"/>
	</g>
	<g>
		<path style="fill:#1C7287;" d="M254.111,98.111h-95c-8.284,0-15-6.716-15-15s6.716-15,15-15h95c8.284,0,15,6.716,15,15    S262.395,98.111,254.111,98.111z"/>
	</g>
	<g>
		<path style="fill:#1C7287;" d="M254.111,53.111h-95c-8.284,0-15-6.716-15-15s6.716-15,15-15h95c8.284,0,15,6.716,15,15    S262.395,53.111,254.111,53.111z"/>
	</g>
	<path style="fill:#D09838;" d="M25,17.897h79.231c13.807,0,25,11.193,25,25v79.231c0,13.807-11.193,25-25,25H25   c-13.807,0-25-11.193-25-25V42.897C0,29.09,11.193,17.897,25,17.897z"/>
	<path style="fill:#E45527;" d="M247.222,254.325H25c-13.807,0-25-11.193-25-25v-46.214c0-13.807,11.193-25,25-25h222.222   c13.807,0,25,11.193,25,25v46.214C272.222,243.132,261.029,254.325,247.222,254.325z"/>
	<path style="fill:#C0491F;" d="M135.114,254.325H25c-13.807,0-25-11.193-25-25v-46.214c0-13.807,11.193-25,25-25h110.114V254.325z"/>
</g>















</svg>